<svg width="800" height="500" viewBox="0 0 800 500" fill="none" xmlns="http://www.w3.org/2000/svg">
<rect width="800" height="500" fill="#005CA9"/>
<path d="M58.0157 290.374C57.5093 289.936 57.5678 289.134 58.1324 288.774L108 256.996L148.452 230.51C149.117 230.074 150 230.552 150 231.347L150 369.732C150 370.601 148.969 371.057 148.327 370.472L105 330.996L58.0157 290.374Z" fill="white"/>
<path d="M46 177.581C46 176.592 46.4882 175.666 47.3047 175.106L119 126L176.317 87.172C178.31 85.8226 181 87.2496 181 89.6558V204.369C181 205.386 180.485 206.334 179.632 206.887L50.6317 290.498C48.6357 291.792 46 290.359 46 287.981V177.581Z" fill="white"/>
<path d="M57 303.752C57 301.152 60.0815 299.783 62.0109 301.526L144.214 375.774C146.252 377.615 144.95 381 142.203 381H60C58.3431 381 57 379.657 57 378V303.752Z" fill="white"/>
<path d="M244.638 170.54H222.401V186.009H242.836V197.522H222.401V222H208.207V158.982H244.638V170.54ZM306.425 194.71C306.425 213.636 297.606 223.099 279.97 223.099C262.86 223.099 254.306 213.855 254.306 195.369V158.982H268.544V195.545C268.544 205.74 272.528 210.838 280.497 210.838C288.319 210.838 292.23 205.916 292.23 196.072V158.982H306.425V194.71ZM376.869 222H362.543L336.571 182.405C335.048 180.091 333.993 178.348 333.407 177.176H333.231C333.466 179.402 333.583 182.801 333.583 187.371V222H320.18V158.982H335.473L360.478 197.347C361.62 199.075 362.675 200.789 363.642 202.488H363.817C363.583 201.023 363.466 198.138 363.466 193.831V158.982H376.869V222ZM391.283 222V158.982H413.607C435.99 158.982 447.182 169.222 447.182 189.7C447.182 199.515 444.12 207.352 437.997 213.211C431.903 219.07 423.773 222 413.607 222H391.283ZM405.478 170.54V210.486H412.509C418.661 210.486 423.48 208.641 426.967 204.949C430.482 201.258 432.24 196.233 432.24 189.876C432.24 183.87 430.497 179.153 427.011 175.726C423.554 172.269 418.69 170.54 412.421 170.54H405.478ZM511.649 222H496.181L491.698 207.981H469.286L464.848 222H449.467L472.406 158.982H489.237L511.649 222ZM488.446 197.083L481.679 175.901C481.181 174.319 480.829 172.43 480.624 170.232H480.272C480.126 172.078 479.76 173.909 479.174 175.726L472.318 197.083H488.446ZM564.691 219.759C560.092 221.985 554.086 223.099 546.674 223.099C537.006 223.099 529.403 220.257 523.866 214.573C518.329 208.89 515.561 201.316 515.561 191.854C515.561 181.775 518.666 173.602 524.877 167.332C531.117 161.062 539.203 157.928 549.135 157.928C555.287 157.928 560.473 158.704 564.691 160.257V173.924C560.473 171.404 555.668 170.145 550.277 170.145C544.359 170.145 539.584 172.005 535.951 175.726C532.318 179.446 530.502 184.485 530.502 190.843C530.502 196.937 532.216 201.8 535.644 205.433C539.071 209.036 543.686 210.838 549.486 210.838C555.023 210.838 560.092 209.49 564.691 206.795V219.759ZM539.115 241.819V235.755C540.141 235.931 541.195 236.019 542.279 236.019C545.883 236.019 547.685 234.949 547.685 232.811C547.685 230.877 546.059 229.91 542.807 229.91C542.426 229.91 541.884 229.939 541.181 229.998V222H548.739V225.604C554.218 225.838 556.957 228.27 556.957 232.898C556.957 238.963 552.299 241.995 542.982 241.995C541.635 241.995 540.346 241.937 539.115 241.819ZM631.093 222H615.624L611.142 207.981H588.729L584.291 222H568.91L591.85 158.982H608.681L631.093 222ZM607.89 197.083L601.122 175.901C600.624 174.319 600.272 172.43 600.067 170.232H599.716C599.569 172.078 599.203 173.909 598.617 175.726L591.762 197.083H607.89ZM615.8 139.471C615.8 143.572 614.979 146.751 613.339 149.007C611.728 151.233 609.516 152.347 606.703 152.347C604.184 152.347 601.723 151.717 599.32 150.457C596.713 149.08 594.911 148.392 593.915 148.392C591.571 148.392 590.399 149.974 590.399 153.138H584.203C584.203 149.065 585.009 145.901 586.62 143.646C588.231 141.39 590.487 140.262 593.388 140.262C595.761 140.262 598.222 140.979 600.771 142.415C603.085 143.704 604.843 144.349 606.044 144.349C608.329 144.349 609.472 142.723 609.472 139.471H615.8ZM665.59 223.099C656.566 223.099 649.213 220.169 643.529 214.31C637.846 208.421 635.004 200.76 635.004 191.326C635.004 181.365 637.89 173.309 643.661 167.156C649.433 161.004 657.079 157.928 666.601 157.928C675.595 157.928 682.86 160.872 688.397 166.761C693.964 172.649 696.747 180.413 696.747 190.052C696.747 199.954 693.861 207.938 688.09 214.002C682.348 220.066 674.848 223.099 665.59 223.099ZM666.205 170.145C661.225 170.145 657.27 172.02 654.34 175.77C651.41 179.49 649.945 184.427 649.945 190.579C649.945 196.819 651.41 201.756 654.34 205.389C657.27 209.021 661.107 210.838 665.854 210.838C670.746 210.838 674.628 209.08 677.499 205.564C680.37 202.02 681.806 197.112 681.806 190.843C681.806 184.31 680.414 179.227 677.631 175.594C674.848 171.961 671.039 170.145 666.205 170.145Z" fill="white"/>
<path d="M219.312 280.922C219.312 287.562 217.672 292.732 214.391 296.43C211.109 300.102 206.734 301.938 201.266 301.938C198.714 301.938 196.617 301.638 194.977 301.039V292.289C196.461 293.305 198.375 293.812 200.719 293.812C206.917 293.812 210.016 289.021 210.016 279.438V244.984H219.312V280.922ZM250.152 301.938C243.98 301.938 239.045 300.076 235.347 296.352C231.675 292.602 229.839 287.641 229.839 281.469C229.839 274.75 231.753 269.503 235.581 265.727C239.435 261.951 244.618 260.062 251.128 260.062C257.378 260.062 262.248 261.898 265.737 265.57C269.227 269.242 270.972 274.333 270.972 280.844C270.972 287.224 269.084 292.341 265.308 296.195C261.558 300.023 256.506 301.938 250.152 301.938ZM250.581 267.289C247.04 267.289 244.24 268.526 242.183 271C240.126 273.474 239.097 276.885 239.097 281.234C239.097 285.427 240.139 288.734 242.222 291.156C244.305 293.552 247.092 294.75 250.581 294.75C254.149 294.75 256.883 293.565 258.784 291.195C260.711 288.826 261.675 285.453 261.675 281.078C261.675 276.677 260.711 273.279 258.784 270.883C256.883 268.487 254.149 267.289 250.581 267.289ZM278.53 299.75V291.352C281.915 293.93 285.652 295.219 289.741 295.219C295.209 295.219 297.944 293.604 297.944 290.375C297.944 289.464 297.709 288.695 297.241 288.07C296.772 287.419 296.134 286.846 295.327 286.352C294.545 285.857 293.608 285.414 292.514 285.023C291.446 284.633 290.248 284.19 288.92 283.695C287.28 283.044 285.795 282.354 284.467 281.625C283.165 280.896 282.071 280.076 281.186 279.164C280.327 278.227 279.676 277.172 279.233 276C278.79 274.828 278.569 273.461 278.569 271.898C278.569 269.971 279.024 268.279 279.936 266.82C280.847 265.336 282.071 264.099 283.608 263.109C285.144 262.094 286.889 261.339 288.842 260.844C290.795 260.323 292.814 260.062 294.897 260.062C298.595 260.062 301.902 260.622 304.819 261.742V269.672C302.006 267.745 298.777 266.781 295.131 266.781C293.985 266.781 292.944 266.898 292.006 267.133C291.095 267.367 290.314 267.693 289.662 268.109C289.011 268.526 288.504 269.034 288.139 269.633C287.774 270.206 287.592 270.844 287.592 271.547C287.592 272.406 287.774 273.135 288.139 273.734C288.504 274.333 289.037 274.867 289.741 275.336C290.47 275.779 291.329 276.195 292.319 276.586C293.334 276.951 294.493 277.354 295.795 277.797C297.514 278.5 299.051 279.216 300.405 279.945C301.785 280.674 302.957 281.508 303.92 282.445C304.884 283.357 305.626 284.424 306.147 285.648C306.668 286.846 306.928 288.279 306.928 289.945C306.928 291.977 306.459 293.747 305.522 295.258C304.584 296.768 303.334 298.018 301.772 299.008C300.209 299.997 298.399 300.727 296.342 301.195C294.311 301.69 292.162 301.938 289.897 301.938C285.522 301.938 281.733 301.208 278.53 299.75ZM350.228 283.461H322.963C323.067 287.159 324.199 290.01 326.361 292.016C328.548 294.021 331.543 295.023 335.345 295.023C339.616 295.023 343.535 293.747 347.103 291.195V298.5C343.457 300.792 338.64 301.938 332.65 301.938C326.765 301.938 322.142 300.128 318.783 296.508C315.449 292.862 313.783 287.745 313.783 281.156C313.783 274.932 315.619 269.867 319.291 265.961C322.989 262.029 327.572 260.062 333.041 260.062C338.509 260.062 342.741 261.82 345.736 265.336C348.731 268.852 350.228 273.734 350.228 279.984V283.461ZM341.478 277.055C341.452 273.799 340.684 271.273 339.173 269.477C337.663 267.654 335.58 266.742 332.923 266.742C330.319 266.742 328.106 267.693 326.283 269.594C324.486 271.495 323.379 273.982 322.963 277.055H341.478ZM344.173 240.609L333.002 253.422H326.283L335.736 240.609H344.173ZM414.523 301H383.508V244.984H392.805V293.148H414.523V301ZM457.316 301H448.253V294.672H448.097C445.467 299.516 441.378 301.938 435.831 301.938C426.378 301.938 421.652 296.26 421.652 284.906V261H430.714V283.969C430.714 291.156 433.488 294.75 439.034 294.75C441.717 294.75 443.917 293.76 445.636 291.781C447.381 289.802 448.253 287.211 448.253 284.008V261H457.316V301ZM474.522 252.602C473.038 252.602 471.761 252.12 470.694 251.156C469.652 250.193 469.131 248.969 469.131 247.484C469.131 246 469.652 244.763 470.694 243.773C471.761 242.784 473.038 242.289 474.522 242.289C476.058 242.289 477.36 242.784 478.428 243.773C479.496 244.763 480.03 246 480.03 247.484C480.03 248.891 479.496 250.102 478.428 251.117C477.36 252.107 476.058 252.602 474.522 252.602ZM479.014 301H469.952V261H479.014V301ZM521.22 264.789L499.619 293.93H521.142V301H486.923V297.602L508.994 268.07H489.033V261H521.22V264.789ZM232.359 381H200.914V324.984H231.109V332.875H210.211V348.734H229.469V356.586H210.211V373.148H232.359V381ZM278.511 377.797C278.511 392.484 271.128 399.828 256.362 399.828C251.154 399.828 246.61 398.956 242.73 397.211V388.93C247.105 391.43 251.258 392.68 255.191 392.68C264.696 392.68 269.448 388.005 269.448 378.656V374.281H269.292C266.297 379.385 261.792 381.938 255.777 381.938C250.907 381.938 246.974 380.167 243.98 376.625C241.011 373.057 239.527 368.279 239.527 362.289C239.527 355.492 241.128 350.089 244.331 346.078C247.534 342.068 251.935 340.062 257.534 340.062C262.821 340.062 266.74 342.224 269.292 346.547H269.448V341H278.511V377.797ZM269.527 362.68V357.484C269.527 354.672 268.589 352.276 266.714 350.297C264.865 348.292 262.547 347.289 259.761 347.289C256.323 347.289 253.628 348.565 251.675 351.117C249.748 353.643 248.784 357.185 248.784 361.742C248.784 365.674 249.709 368.826 251.558 371.195C253.433 373.539 255.907 374.711 258.98 374.711C262.105 374.711 264.644 373.591 266.597 371.352C268.55 369.086 269.527 366.195 269.527 362.68ZM325.756 341L307.709 387.406C303.959 395.688 298.699 399.828 291.928 399.828C290.027 399.828 288.439 399.659 287.162 399.32V391.781C288.595 392.25 289.897 392.484 291.069 392.484C294.454 392.484 296.98 390.818 298.647 387.484L301.342 380.922L285.444 341H295.483L305.014 370.062C305.118 370.427 305.353 371.391 305.717 372.953H305.912C306.043 372.354 306.277 371.417 306.616 370.141L316.616 341H325.756ZM368.353 381H359.291V374.203H359.134C356.218 379.359 351.726 381.938 345.658 381.938C340.736 381.938 336.791 380.154 333.822 376.586C330.879 372.992 329.408 368.109 329.408 361.938C329.408 355.323 331.035 350.023 334.291 346.039C337.572 342.055 341.934 340.062 347.377 340.062C352.767 340.062 356.686 342.224 359.134 346.547H359.291V321.781H368.353V381ZM359.408 362.719V357.484C359.408 354.646 358.483 352.237 356.634 350.258C354.785 348.279 352.429 347.289 349.564 347.289C346.179 347.289 343.509 348.552 341.556 351.078C339.629 353.604 338.666 357.107 338.666 361.586C338.666 365.648 339.59 368.865 341.439 371.234C343.314 373.578 345.827 374.75 348.978 374.75C352.077 374.75 354.59 373.617 356.517 371.352C358.444 369.06 359.408 366.182 359.408 362.719ZM385.559 332.602C384.075 332.602 382.799 332.12 381.731 331.156C380.69 330.193 380.169 328.969 380.169 327.484C380.169 326 380.69 324.763 381.731 323.773C382.799 322.784 384.075 322.289 385.559 322.289C387.096 322.289 388.398 322.784 389.466 323.773C390.533 324.763 391.067 326 391.067 327.484C391.067 328.891 390.533 330.102 389.466 331.117C388.398 332.107 387.096 332.602 385.559 332.602ZM390.052 381H380.989V341H390.052V381ZM420.461 381.938C414.289 381.938 409.354 380.076 405.656 376.352C401.984 372.602 400.148 367.641 400.148 361.469C400.148 354.75 402.062 349.503 405.891 345.727C409.745 341.951 414.927 340.062 421.438 340.062C427.688 340.062 432.557 341.898 436.047 345.57C439.536 349.242 441.281 354.333 441.281 360.844C441.281 367.224 439.393 372.341 435.617 376.195C431.867 380.023 426.815 381.938 420.461 381.938ZM420.891 347.289C417.349 347.289 414.549 348.526 412.492 351C410.435 353.474 409.406 356.885 409.406 361.234C409.406 365.427 410.448 368.734 412.531 371.156C414.615 373.552 417.401 374.75 420.891 374.75C424.458 374.75 427.193 373.565 429.094 371.195C431.021 368.826 431.984 365.453 431.984 361.078C431.984 356.677 431.021 353.279 429.094 350.883C427.193 348.487 424.458 347.289 420.891 347.289ZM472.608 378.773V369.203C473.467 369.984 474.483 370.688 475.655 371.312C476.853 371.938 478.116 372.471 479.444 372.914C480.772 373.331 482.1 373.656 483.428 373.891C484.756 374.125 485.98 374.242 487.1 374.242C491.006 374.242 493.91 373.591 495.811 372.289C497.738 370.987 498.702 369.099 498.702 366.625C498.702 365.297 498.376 364.151 497.725 363.188C497.1 362.198 496.215 361.299 495.069 360.492C493.923 359.685 492.569 358.917 491.006 358.188C489.47 357.432 487.816 356.651 486.045 355.844C484.144 354.828 482.373 353.799 480.733 352.758C479.092 351.716 477.66 350.57 476.436 349.32C475.238 348.044 474.288 346.612 473.584 345.023C472.907 343.435 472.569 341.573 472.569 339.438C472.569 336.807 473.155 334.529 474.327 332.602C475.524 330.648 477.087 329.047 479.014 327.797C480.967 326.521 483.181 325.583 485.655 324.984C488.129 324.359 490.655 324.047 493.233 324.047C499.092 324.047 503.363 324.711 506.045 326.039V335.219C502.868 332.927 498.78 331.781 493.78 331.781C492.399 331.781 491.019 331.911 489.639 332.172C488.285 332.432 487.061 332.862 485.967 333.461C484.899 334.06 484.027 334.828 483.35 335.766C482.673 336.703 482.334 337.836 482.334 339.164C482.334 340.414 482.595 341.495 483.116 342.406C483.636 343.318 484.392 344.151 485.381 344.906C486.397 345.661 487.621 346.404 489.053 347.133C490.511 347.836 492.191 348.604 494.092 349.438C496.045 350.453 497.881 351.521 499.6 352.641C501.345 353.76 502.868 354.997 504.17 356.352C505.498 357.706 506.54 359.216 507.295 360.883C508.077 362.523 508.467 364.398 508.467 366.508C508.467 369.346 507.894 371.742 506.748 373.695C505.603 375.648 504.053 377.237 502.1 378.461C500.173 379.685 497.946 380.57 495.42 381.117C492.894 381.664 490.225 381.938 487.413 381.938C486.475 381.938 485.316 381.859 483.936 381.703C482.582 381.573 481.189 381.365 479.756 381.078C478.324 380.818 476.97 380.492 475.694 380.102C474.418 379.711 473.389 379.268 472.608 378.773ZM552.431 363.461H525.166C525.27 367.159 526.403 370.01 528.564 372.016C530.752 374.021 533.746 375.023 537.548 375.023C541.819 375.023 545.739 373.747 549.306 371.195V378.5C545.66 380.792 540.843 381.938 534.853 381.938C528.968 381.938 524.345 380.128 520.986 376.508C517.653 372.862 515.986 367.745 515.986 361.156C515.986 354.932 517.822 349.867 521.494 345.961C525.192 342.029 529.775 340.062 535.244 340.062C540.712 340.062 544.944 341.82 547.939 345.336C550.934 348.852 552.431 353.734 552.431 359.984V363.461ZM543.681 357.055C543.655 353.799 542.887 351.273 541.377 349.477C539.866 347.654 537.783 346.742 535.127 346.742C532.522 346.742 530.309 347.693 528.486 349.594C526.689 351.495 525.582 353.982 525.166 357.055H543.681ZM582.958 380.57C581.187 381.456 578.856 381.898 575.966 381.898C568.205 381.898 564.325 378.174 564.325 370.727V348.109H557.645V341H564.325V331.742L573.388 329.164V341H582.958V348.109H573.388V368.109C573.388 370.479 573.817 372.172 574.677 373.188C575.536 374.203 576.968 374.711 578.973 374.711C580.51 374.711 581.838 374.268 582.958 373.383V380.57ZM626.453 381H617.391V374.672H617.234C614.604 379.516 610.516 381.938 604.969 381.938C595.516 381.938 590.789 376.26 590.789 364.906V341H599.852V363.969C599.852 371.156 602.625 374.75 608.172 374.75C610.854 374.75 613.055 373.76 614.773 371.781C616.518 369.802 617.391 367.211 617.391 364.008V341H626.453V381ZM621.336 320.609L610.164 333.422H603.445L612.898 320.609H621.336ZM648.308 375.219H648.152V381H639.089V321.781H648.152V348.031H648.308C651.407 342.719 655.938 340.062 661.902 340.062C666.954 340.062 670.899 341.859 673.737 345.453C676.602 349.021 678.034 353.812 678.034 359.828C678.034 366.521 676.433 371.885 673.23 375.922C670.027 379.932 665.652 381.938 660.105 381.938C654.896 381.938 650.964 379.698 648.308 375.219ZM648.073 359.32V364.281C648.073 367.198 648.998 369.672 650.847 371.703C652.722 373.734 655.092 374.75 657.956 374.75C661.316 374.75 663.946 373.448 665.847 370.844C667.774 368.214 668.737 364.555 668.737 359.867C668.737 355.935 667.839 352.862 666.042 350.648C664.271 348.409 661.862 347.289 658.816 347.289C655.586 347.289 652.982 348.435 651.003 350.727C649.05 353.018 648.073 355.883 648.073 359.32ZM717.858 381H709.069V374.75H708.913C706.152 379.542 702.103 381.938 696.764 381.938C692.832 381.938 689.746 380.87 687.506 378.734C685.293 376.599 684.186 373.773 684.186 370.258C684.186 362.706 688.535 358.305 697.233 357.055L709.108 355.375C709.108 349.672 706.399 346.82 700.983 346.82C696.217 346.82 691.92 348.461 688.092 351.742V343.812C692.311 341.312 697.181 340.062 702.702 340.062C712.806 340.062 717.858 345.036 717.858 354.984V381ZM709.108 361.352L700.709 362.523C698.105 362.862 696.139 363.5 694.811 364.438C693.509 365.349 692.858 366.964 692.858 369.281C692.858 370.974 693.457 372.367 694.655 373.461C695.879 374.529 697.506 375.062 699.538 375.062C702.298 375.062 704.577 374.099 706.373 372.172C708.196 370.219 709.108 367.771 709.108 364.828V361.352ZM738.853 381H729.752V321.781H738.853V381Z" fill="white"/>
</svg>
